<svg version="1.2" xmlns="http://www.w3.org/2000/svg" viewBox="0 0 1571 1590" width="1571" height="1590">
	<title>royal-caribbean-logo-no-border-svg</title>
	<style>
		.s0 { fill: #041556 } 
		.s1 { fill: #fefefe } 
	</style>
	<g id="logo-no-border">
		<path id="Fill-2_1_" class="s0" d="m0.6 0.2h1569.7v1589.7h-1569.7z"/>
		<path id="Fill-22_1_" class="s1" d="m787.5 203c58 53.9 120.1 111.8 173.9 169.8l-62.1 82.8v4.1l169.8 74.5 116-78.6-70.4-78.7v-4.1c70.4-49.7 132.5-99.4 198.8-144.9l-33.2 347.7h-985.6l-33.2-347.7c70.4 45.5 128.4 95.2 198.8 144.9v4.1l-70.4 78.7 116 78.6 169.8-74.5v-4.1l-62.1-82.8c49.7-58 115.9-115.9 173.9-169.8z"/>
		<path id="Fill-23_1_" class="s1" d="m1272.1 637.7l-8.3 116h-364.5v397.4h178.1c41.4 0 82.8-41.4 74.6-70.4-8.3-41.4-45.6-66.2-78.7-86.9 8.3 0 128.4-91.1 186.3-128.4-4.1 24.9-41.4 351.9-45.5 356.1l-426.6 161.4h-8.3l-418.3-161.4c0-4.2-41.4-331.2-45.5-356.1 58 37.3 178.1 128.4 186.3 128.4-33.1 20.7-70.4 45.5-78.6 86.9-8.3 29 33.1 70.4 74.5 70.4h178.1v-397.4h-364.5l-8.3-116z"/>
	</g>
</svg>